<svg width="17" height="18" viewBox="0 0 17 18" fill="none" xmlns="http://www.w3.org/2000/svg">
<path fill-rule="evenodd" clip-rule="evenodd" d="M0.503174 9.041C0.503174 4.571 4.13315 0.940994 8.60315 0.940994C13.0731 0.940994 16.7032 4.571 16.7032 9.041C16.7032 13.511 13.0731 17.141 8.60315 17.141C4.13315 17.141 0.503174 13.511 0.503174 9.041ZM1.25317 9.041C1.25317 9.251 1.09318 9.42099 0.883179 9.42099C0.673179 9.42099 0.503174 9.251 0.503174 9.041C0.503174 8.831 0.673179 8.661 0.883179 8.661C1.09318 8.661 1.25317 8.831 1.25317 9.041C1.25317 13.101 4.55315 16.391 8.60315 16.391C12.6531 16.391 15.9532 13.091 15.9532 9.041C15.9532 4.991 12.6631 1.69099 8.60315 1.69099C4.54315 1.69099 1.25317 4.981 1.25317 9.041Z" fill="#6B8B8B"/>
</svg>
