<svg width="18" height="18" viewBox="0 0 18 18" fill="none" xmlns="http://www.w3.org/2000/svg">
<path fill-rule="evenodd" clip-rule="evenodd" d="M0.983154 9.04099C0.983154 4.56099 4.58319 0.940994 9.02319 0.940994C13.4632 0.940994 17.0632 4.56099 17.0632 9.04099C17.0632 13.511 13.4632 17.141 9.02319 17.141C4.58319 17.141 0.983154 13.511 0.983154 9.04099ZM1.73315 9.04099C1.73315 9.25099 1.56315 9.42099 1.35315 9.42099C1.14315 9.42099 0.983154 9.25099 0.983154 9.04099C0.983154 8.83099 1.14315 8.661 1.35315 8.661C1.56315 8.661 1.73315 8.83099 1.73315 9.04099C1.73315 13.101 5.00319 16.391 9.02319 16.391C13.0432 16.391 16.3132 13.091 16.3132 9.04099C16.3132 4.99099 13.0532 1.69099 9.02319 1.69099C4.99319 1.69099 1.73315 4.98099 1.73315 9.04099Z" fill="#6B8B8B"/>
</svg>
