<svg width="17" height="18" viewBox="0 0 17 18" fill="none" xmlns="http://www.w3.org/2000/svg">
<path fill-rule="evenodd" clip-rule="evenodd" d="M0.143188 9.04099C0.143188 4.56099 3.77316 0.940994 8.24316 0.940994C12.7132 0.940994 16.3432 4.56099 16.3432 9.04099C16.3432 13.511 12.7132 17.141 8.24316 17.141C3.77316 17.141 0.143188 13.511 0.143188 9.04099ZM0.893188 9.04099C0.893188 9.25099 0.733193 9.42099 0.523193 9.42099C0.313193 9.42099 0.143188 9.25099 0.143188 9.04099C0.143188 8.83099 0.313193 8.661 0.523193 8.661C0.733193 8.661 0.893188 8.83099 0.893188 9.04099C0.893188 13.101 4.19316 16.391 8.24316 16.391C12.2932 16.391 15.5932 13.091 15.5932 9.04099C15.5932 4.99099 12.3032 1.69099 8.24316 1.69099C4.18316 1.69099 0.893188 4.98099 0.893188 9.04099Z" fill="#6B8B8B"/>
</svg>
