<svg width="17" height="18" viewBox="0 0 17 18" fill="none" xmlns="http://www.w3.org/2000/svg">
<path fill-rule="evenodd" clip-rule="evenodd" d="M0.823242 9.041C0.823242 4.571 4.42328 0.940994 8.86328 0.940994C13.3033 0.940994 16.9033 4.571 16.9033 9.041C16.9033 13.511 13.3033 17.141 8.86328 17.141C4.42328 17.141 0.823242 13.511 0.823242 9.041ZM1.57324 9.041C1.57324 9.251 1.40336 9.42099 1.19336 9.42099C0.983359 9.42099 0.823242 9.251 0.823242 9.041C0.823242 8.831 0.983359 8.661 1.19336 8.661C1.40336 8.661 1.57324 8.831 1.57324 9.041C1.57324 13.101 4.84328 16.391 8.86328 16.391C12.8833 16.391 16.1533 13.091 16.1533 9.041C16.1533 4.991 12.8933 1.69099 8.86328 1.69099C4.83328 1.69099 1.57324 4.981 1.57324 9.041Z" fill="#6B8B8B"/>
</svg>
