<svg width="17" height="18" viewBox="0 0 17 18" fill="none" xmlns="http://www.w3.org/2000/svg">
<path fill-rule="evenodd" clip-rule="evenodd" d="M0.82312 9.04099C0.82312 4.56099 4.42316 0.940994 8.86316 0.940994C13.3032 0.940994 16.9032 4.56099 16.9032 9.04099C16.9032 13.511 13.3032 17.141 8.86316 17.141C4.42316 17.141 0.82312 13.511 0.82312 9.04099ZM1.57312 9.04099C1.57312 9.25099 1.40324 9.42099 1.19324 9.42099C0.983237 9.42099 0.82312 9.25099 0.82312 9.04099C0.82312 8.83099 0.983237 8.661 1.19324 8.661C1.40324 8.661 1.57312 8.83099 1.57312 9.04099C1.57312 13.101 4.84316 16.391 8.86316 16.391C12.8832 16.391 16.1532 13.091 16.1532 9.04099C16.1532 4.99099 12.8932 1.69099 8.86316 1.69099C4.83316 1.69099 1.57312 4.98099 1.57312 9.04099Z" fill="#6B8B8B"/>
</svg>
