<svg width="17" height="18" viewBox="0 0 17 18" fill="none" xmlns="http://www.w3.org/2000/svg">
<path fill-rule="evenodd" clip-rule="evenodd" d="M0.143311 9.041C0.143311 4.561 3.77329 0.940994 8.24329 0.940994C12.7133 0.940994 16.3433 4.561 16.3433 9.041C16.3433 13.511 12.7133 17.141 8.24329 17.141C3.77329 17.141 0.143311 13.511 0.143311 9.041ZM0.893311 9.041C0.893311 9.251 0.733315 9.42099 0.523315 9.42099C0.313315 9.42099 0.143311 9.251 0.143311 9.041C0.143311 8.831 0.313315 8.661 0.523315 8.661C0.733315 8.661 0.893311 8.831 0.893311 9.041C0.893311 13.101 4.19329 16.391 8.24329 16.391C12.2933 16.391 15.5933 13.091 15.5933 9.041C15.5933 4.991 12.3033 1.69099 8.24329 1.69099C4.18329 1.69099 0.893311 4.981 0.893311 9.041Z" fill="#6B8B8B"/>
</svg>
