<svg width="17" height="18" viewBox="0 0 17 18" fill="none" xmlns="http://www.w3.org/2000/svg">
<path fill-rule="evenodd" clip-rule="evenodd" d="M0.343262 9.041C0.343262 4.561 3.9733 0.940994 8.4433 0.940994C12.9133 0.940994 16.5433 4.561 16.5433 9.041C16.5433 13.511 12.9133 17.141 8.4433 17.141C3.9733 17.141 0.343262 13.511 0.343262 9.041ZM1.09326 9.041C1.09326 9.251 0.933267 9.42099 0.723267 9.42099C0.513267 9.42099 0.343262 9.251 0.343262 9.041C0.343262 8.831 0.513267 8.661 0.723267 8.661C0.933267 8.661 1.09326 8.831 1.09326 9.041C1.09326 13.101 4.3933 16.391 8.4433 16.391C12.4933 16.391 15.7933 13.091 15.7933 9.041C15.7933 4.991 12.5033 1.69099 8.4433 1.69099C4.3833 1.69099 1.09326 4.981 1.09326 9.041Z" fill="#6B8B8B"/>
</svg>
